<svg xmlns="http://www.w3.org/2000/svg" viewBox="0 0 256 256" fill="#000000" id="User-Plus-Thin--Streamline-Phosphor-Thin">
  <desc>
    User Plus Thin Streamline Icon: https://streamlinehq.com
  </desc>
  <path d="M253.44 145.2215c0 2.3877 -1.9357 4.3233 -4.3234 4.3234h-21.6169v21.617c0 3.3281 -3.6029 5.4082 -6.4851 3.7441 -1.3377 -0.7723 -2.1617 -2.1995 -2.1617 -3.7441v-21.617h-21.617c-3.3281 -0.0001 -5.4082 -3.603 -3.744 -6.4852 0.7723 -1.3376 2.1995 -2.1615 3.744 -2.1615h21.617v-21.617c0 -3.3281 3.6028 -5.4082 6.4851 -3.7441 1.3376 0.7723 2.1617 2.1995 2.1617 3.7441v21.617h21.6169c2.3878 0 4.3234 1.9356 4.3234 4.3233Zm-61.5434 66.3965c2.0251 2.641 0.4319 6.484 -2.8679 6.9174 -1.3963 0.1833 -2.7943 -0.3248 -3.7469 -1.3619 -22.633 -26.8806 -53.6533 -41.6882 -87.4838 -41.6882s-64.8508 14.8076 -87.4838 41.6882c-2.0252 2.6411 -6.1499 2.0994 -7.4245 -0.975 -0.6445 -1.5543 -0.3285 -3.3413 0.8098 -4.5805 18.0609 -21.5089 41.2127 -35.8085 66.8936 -41.7099 -48.9593 -20.9424 -56.8882 -87.0314 -14.2719 -118.9602C98.9375 19.019 160.1367 45.197 166.4797 98.0682c3.6591 30.4997 -13.2337 59.7589 -41.4768 71.8399 25.681 5.9014 48.8327 20.201 66.8937 41.7099ZM97.798 166.8385c46.5941 0 75.7153 -50.4395 52.4183 -90.7912 -23.297 -40.3516 -81.5396 -40.3516 -104.8366 0 -5.3124 9.2014 -8.1091 19.639 -8.1091 30.2638 0.0357 33.4135 27.1139 60.4916 60.5274 60.5274Z" stroke-width="1"></path>
</svg>