<svg viewBox="0 0 24 24" fill="none" xmlns="http://www.w3.org/2000/svg" id="At--Streamline-Unicons-Thinline">
  <desc>
    At Streamline Icon: https://streamlinehq.com
  </desc>
  <path d="M13.8076 2.16213c-1.4818 -0.26599 -3.0045 -0.19501 -4.45512 0.20764C4.01398 3.85146 0.887451 9.38033 2.36914 14.7188c0.63983 2.3341 2.11701 4.3509 4.14941 5.665 1.63971 1.0499 3.54515 1.6096 5.49215 1.6133 1.7518 0.0008 3.4727 -0.4603 4.9893 -1.3369 0.239 -0.1381 0.3207 -0.4437 0.1826 -0.6826 -0.138 -0.239 -0.4436 -0.3207 -0.6826 -0.1827 -2.9482 1.6875 -6.59149 1.5892 -9.44434 -0.2549 -1.82342 -1.1794 -3.14837 -2.9893 -3.72168 -5.0839 -0.36352 -1.3071 -0.42785 -2.6793 -0.18835 -4.0146 0.88068 -4.90962 5.57465 -8.17573 10.48427 -7.29499C17.9761 4.00893 21.0806 7.86074 21 12.291v0.209c0 1.3808 -1.1193 2.5 -2.5 2.5S16 13.8808 16 12.5V8.50002c0 -0.27612 -0.2239 -0.5 -0.5 -0.5s-0.5 0.22388 -0.5 0.5v0.87952c-0.7332 -0.83875 -1.7984 -1.37952 -3 -1.37952 -2.20917 0 -4 1.79083 -4 3.99998 0 2.2092 1.79083 4 4 4 1.4407 -0.0014 2.6925 -0.7705 3.3967 -1.9136C15.9766 15.2178 17.1413 16 18.5 16c1.933 0 3.5 -1.567 3.5 -3.5v-0.209c0.0811 -4.91427 -3.3698 -9.18081 -8.1924 -10.12887ZM12 15c-1.6569 0 -3 -1.3431 -3 -3 0 -1.6568 1.3431 -2.99998 3 -2.99998 1.6561 0.00183 2.9982 1.34388 3 2.99998 0 1.6569 -1.3431 3 -3 3Z" fill="#000000" stroke-width="1"></path>
</svg>